<?xml version="1.0" standalone="no"?>
<!DOCTYPE svg PUBLIC "-//W3C//DTD SVG 20010904//EN"
 "http://www.w3.org/TR/2001/REC-SVG-20010904/DTD/svg10.dtd">
<svg version="1.0" xmlns="http://www.w3.org/2000/svg"
 width="2000.000000pt" height="2000.000000pt" viewBox="0 0 2000.000000 2000.000000"
 preserveAspectRatio="xMidYMid meet">

<g transform="translate(0.000000,2000.000000) scale(0.100000,-0.100000)"
fill="#000000" stroke="none">
<path d="M6513 11936 c-294 -56 -490 -221 -583 -491 -75 -219 -61 -555 33
-767 133 -299 446 -460 831 -427 122 10 203 31 301 79 197 95 334 267 395 495
31 115 39 366 15 490 -49 260 -180 444 -389 545 -56 26 -130 56 -166 65 -89
23 -341 29 -437 11z m401 -205 c181 -64 292 -191 348 -398 31 -113 30 -353 -1
-468 -33 -122 -73 -198 -141 -269 -107 -111 -228 -159 -410 -160 -58 0 -130 6
-160 13 -195 47 -345 196 -404 402 -59 209 -33 495 61 658 36 62 127 150 190
184 95 51 182 68 328 63 99 -3 144 -9 189 -25z"/>
<path d="M13347 11934 c-276 -50 -488 -232 -570 -489 -46 -144 -60 -377 -32
-538 79 -455 417 -695 921 -656 209 17 411 92 558 209 l76 60 0 290 0 290
-350 0 -350 0 0 -95 0 -95 245 0 245 0 0 -149 0 -149 -49 -36 c-66 -49 -160
-91 -256 -117 -105 -27 -301 -31 -392 -6 -205 55 -344 201 -405 426 -27 100
-30 329 -5 441 21 96 84 223 138 279 105 107 215 152 394 158 245 9 401 -57
501 -213 l33 -52 105 32 c58 17 106 36 106 42 0 16 -63 118 -105 169 -82 100
-248 181 -418 204 -106 15 -295 12 -390 -5z"/>
<path d="M4222 11093 l3 -828 103 -3 103 -3 -3 695 c-2 382 -2 693 -1 692 2
-1 198 -313 436 -692 l434 -689 136 -3 137 -3 0 831 0 830 -105 0 -105 0 1
-567 c1 -313 4 -625 7 -696 4 -70 5 -127 2 -127 -3 1 -201 312 -441 693 l-436
692 -136 3 -137 3 2 -828z"/>
<path d="M8540 11090 l0 -830 115 0 115 0 0 830 0 830 -115 0 -115 0 0 -830z"/>
<path d="M9190 11090 l0 -830 106 0 106 0 -4 704 c-2 387 -2 704 -1 703 1 -1
18 -54 38 -117 20 -63 139 -380 263 -703 l226 -588 79 3 80 3 209 550 c115
303 232 615 258 695 l49 145 0 -697 1 -698 100 0 100 0 0 830 0 830 -144 0
c-128 0 -145 -2 -151 -17 -104 -269 -430 -1143 -461 -1238 l-42 -130 -12 45
c-31 120 -77 247 -278 770 l-217 565 -153 3 -152 3 0 -831z"/>
<path d="M11671 11898 c-5 -13 -154 -376 -332 -808 -177 -432 -324 -795 -327
-808 l-4 -23 116 3 117 3 93 235 94 235 377 0 378 0 92 -235 93 -235 117 -3
c109 -2 117 -1 111 15 -3 10 -153 384 -333 831 l-327 812 -128 0 c-124 0 -129
-1 -137 -22z m169 -270 c17 -51 84 -228 148 -393 l118 -300 -295 -3 c-162 -1
-296 0 -299 3 -3 2 47 139 111 302 63 164 130 340 147 391 18 50 34 92 35 92
2 0 17 -42 35 -92z"/>
<path d="M14680 11090 l0 -830 655 0 655 0 0 95 0 95 -537 2 -538 3 -3 283 -2
282 480 0 480 0 0 95 0 95 -480 0 -480 0 0 260 0 260 515 0 515 0 0 95 0 95
-630 0 -630 0 0 -830z"/>
<path d="M5174 8973 c4 -10 156 -384 338 -831 l332 -813 120 3 119 3 337 825
337 825 -115 3 c-63 1 -119 -1 -123 -5 -13 -13 -463 -1169 -509 -1306 -23 -71
-46 -125 -50 -120 -4 4 -24 60 -45 123 -28 87 -341 895 -490 1268 l-17 42
-120 0 c-110 0 -120 -1 -114 -17z"/>
<path d="M8420 8160 l0 -830 115 0 115 0 -2 828 -3 827 -112 3 -113 3 0 -831z"/>
<path d="M9070 8160 l0 -830 530 0 530 0 0 95 0 95 -415 0 -415 0 0 735 0 735
-115 0 -115 0 0 -830z"/>
<path d="M13620 8160 l0 -830 530 0 530 0 0 95 0 95 -415 0 -415 0 0 735 0
735 -115 0 -115 0 0 -830z"/>
<path d="M14957 8983 c-4 -3 -7 -377 -7 -830 l0 -823 655 0 655 0 0 95 0 95
-540 0 -540 0 0 285 0 285 480 0 480 0 0 95 0 95 -480 0 -480 0 2 258 3 257
513 3 512 2 0 95 0 95 -623 0 c-343 0 -627 -3 -630 -7z"/>
<path d="M4091 8187 c-179 -435 -331 -807 -338 -824 l-13 -33 119 0 120 0 93
238 94 237 375 3 374 2 94 -240 94 -240 118 0 118 0 -265 658 c-146 361 -295
732 -332 824 l-67 168 -130 0 -130 0 -324 -793z m653 63 c53 -135 96 -248 96
-252 0 -5 -135 -8 -301 -8 -237 0 -300 3 -296 13 77 193 241 624 262 687 15
47 30 89 33 94 3 5 28 -58 57 -140 29 -82 96 -259 149 -394z"/>
<path d="M7261 8963 c-5 -10 -156 -378 -336 -818 -180 -440 -329 -804 -332
-808 -2 -4 50 -6 117 -5 l122 3 93 235 92 235 375 3 375 2 94 -240 94 -240
118 0 117 0 -13 33 c-7 17 -157 389 -332 825 l-320 792 -127 0 c-111 0 -128
-2 -137 -17z m311 -651 c67 -171 119 -314 116 -317 -3 -3 -138 -4 -300 -3
l-296 3 109 280 c60 154 128 334 151 399 l42 119 28 -84 c15 -46 83 -225 150
-397z"/>
<path d="M10881 8963 c-5 -10 -156 -378 -336 -818 -180 -440 -329 -804 -332
-808 -2 -4 50 -6 117 -5 l122 3 93 235 92 235 375 3 375 2 94 -240 94 -240
118 0 117 0 -13 33 c-7 17 -157 389 -332 825 l-320 792 -127 0 c-111 0 -128
-2 -137 -17z m311 -651 c67 -171 119 -314 116 -317 -3 -3 -138 -4 -300 -3
l-296 3 109 280 c60 154 128 334 151 399 l42 119 28 -84 c15 -46 83 -225 150
-397z"/>
<path d="M12010 8156 l0 -826 393 0 c349 0 402 2 487 20 116 24 202 65 274
131 166 151 176 439 23 593 -54 53 -107 83 -204 111 l-73 21 48 17 c159 58
252 209 239 389 -12 177 -112 287 -312 345 -51 14 -120 17 -467 21 l-408 3 0
-825z m720 633 c110 -18 184 -59 216 -121 24 -46 28 -137 10 -202 -23 -79 -74
-128 -161 -155 -60 -19 -93 -21 -311 -21 l-244 0 0 255 0 255 213 0 c116 0
241 -5 277 -11z m98 -704 c85 -20 133 -46 176 -97 46 -54 59 -103 54 -205 -6
-105 -38 -162 -117 -210 -84 -50 -136 -57 -431 -58 l-265 0 -3 293 -2 292 262
0 c197 0 279 -4 326 -15z"/>
</g>
</svg>
